<svg id="svg" version="1.1" xmlns="http://www.w3.org/2000/svg" xmlns:xlink="http://www.w3.org/1999/xlink" width="400" height="331.83856502242156" viewBox="0, 0, 400,331.83856502242156"><g id="svgg"><path id="path0" d="M0.000 165.975 L 0.000 331.950 5.145 331.950 L 10.290 331.950 10.290 170.103 C 10.290 59.172,10.399 8.053,10.634 7.613 C 11.061 6.816,382.872 6.573,383.668 7.369 C 383.977 7.678,384.066 44.231,384.066 169.859 L 384.066 331.950 392.033 331.950 L 400.000 331.950 400.000 165.975 L 400.000 0.000 200.000 0.000 L 0.000 0.000 0.000 165.975 M107.321 161.079 C 106.408 162.083,105.958 182.542,105.720 233.859 C 105.525 275.913,105.306 299.062,105.066 302.905 C 104.835 306.592,105.325 310.891,106.069 311.713 C 106.807 312.528,133.379 312.753,134.032 311.950 C 134.251 311.681,134.423 302.796,134.520 286.639 C 134.603 272.946,134.786 261.476,134.927 261.150 C 135.564 259.679,136.401 259.585,148.780 259.587 C 163.416 259.589,161.295 258.584,166.295 267.884 C 167.227 269.618,168.822 272.456,169.838 274.191 C 171.920 277.745,173.667 280.937,175.924 285.311 C 178.211 289.742,179.945 292.818,180.809 293.973 C 181.231 294.538,181.577 295.107,181.577 295.238 C 181.577 295.369,182.722 297.521,184.122 300.020 C 185.522 302.520,187.227 305.759,187.911 307.220 C 188.595 308.680,189.578 310.350,190.096 310.931 L 191.037 311.986 204.813 312.184 C 221.544 312.425,221.036 312.578,217.965 308.216 C 217.230 307.173,214.736 302.753,213.282 299.917 C 212.814 299.004,212.004 297.510,211.483 296.598 C 210.962 295.685,209.743 293.369,208.775 291.452 C 207.807 289.535,206.856 287.762,206.661 287.512 C 206.466 287.262,205.635 285.829,204.813 284.327 C 203.992 282.825,202.485 280.192,201.465 278.475 C 198.827 274.032,198.090 272.729,196.418 269.544 C 195.603 267.992,194.097 265.311,193.070 263.586 C 192.043 261.860,191.203 260.273,191.203 260.058 C 191.203 259.842,190.954 259.461,190.649 259.211 C 187.292 256.454,187.449 252.419,190.987 250.534 C 192.082 249.950,193.736 248.791,194.663 247.957 C 195.590 247.124,196.731 246.150,197.199 245.794 C 198.553 244.761,203.432 239.245,204.101 237.990 C 205.333 235.680,206.590 233.514,206.980 233.029 C 207.200 232.755,207.484 232.083,207.612 231.535 C 207.740 230.988,208.192 229.793,208.618 228.880 C 209.044 227.967,209.554 226.161,209.753 224.866 C 209.952 223.572,210.363 221.929,210.666 221.215 C 211.871 218.384,211.662 205.051,210.323 199.336 C 208.680 192.325,207.933 190.291,205.427 186.016 C 199.302 175.563,195.009 171.039,187.624 167.253 C 182.845 164.804,175.229 161.992,173.375 161.992 C 172.796 161.992,170.153 161.618,167.501 161.162 L 162.679 160.332 135.340 160.332 L 108.000 160.332 107.321 161.079 M196.930 160.604 C 194.628 160.931,195.528 162.869,200.278 167.810 C 202.389 170.006,204.487 172.322,204.940 172.955 C 206.986 175.820,209.862 180.674,211.162 183.458 C 212.911 187.202,211.581 186.888,225.687 186.888 C 232.266 186.888,237.327 187.026,238.010 187.225 C 238.648 187.411,240.216 187.724,241.494 187.922 C 246.550 188.704,253.017 193.789,255.717 199.106 C 262.436 212.338,254.690 229.778,241.328 231.505 C 240.324 231.635,238.382 232.033,237.012 232.391 C 234.350 233.086,217.556 233.050,215.323 232.345 C 214.131 231.968,212.530 232.727,212.288 233.782 C 211.970 235.173,211.122 249.119,211.121 252.984 C 211.120 259.033,210.926 258.961,228.548 259.422 C 237.803 259.664,236.782 258.935,242.009 269.046 C 243.142 271.237,245.042 274.822,246.233 277.012 C 247.423 279.203,249.571 283.277,251.006 286.064 C 252.441 288.852,254.527 292.736,255.643 294.695 C 256.759 296.654,258.269 299.378,259.001 300.747 C 262.748 307.766,264.731 311.131,265.361 311.539 C 267.067 312.644,293.181 312.767,293.870 311.673 C 294.196 311.156,293.864 310.464,290.085 303.778 C 289.607 302.933,287.573 299.159,285.565 295.392 C 283.556 291.625,281.370 287.725,280.707 286.727 C 280.045 285.728,279.502 284.843,279.502 284.761 C 279.502 284.498,275.230 277.114,274.755 276.555 C 274.181 275.879,273.056 273.861,270.199 268.382 C 268.961 266.008,267.256 262.797,266.410 261.245 C 263.250 255.450,262.857 254.164,263.660 252.242 C 264.133 251.110,264.479 250.833,268.748 248.162 C 274.243 244.723,283.585 232.045,285.768 225.062 C 288.293 216.985,288.811 212.339,288.152 203.665 C 287.931 200.752,287.613 198.112,287.446 197.799 C 287.278 197.486,286.977 196.434,286.776 195.461 C 285.228 187.968,280.162 178.300,275.298 173.554 C 268.797 167.213,262.730 163.748,255.602 162.307 C 246.265 160.420,247.731 160.498,221.743 160.498 C 208.506 160.498,197.340 160.546,196.930 160.604 M321.130 179.952 C 320.519 180.627,320.495 181.729,320.404 213.230 C 320.353 231.148,320.255 260.638,320.186 278.763 L 320.061 311.716 320.968 312.185 C 322.199 312.822,355.687 312.898,357.510 312.268 L 358.672 311.867 358.918 260.747 C 359.194 203.300,359.399 208.321,356.749 207.694 C 356.008 207.519,355.246 207.009,354.747 206.354 C 354.304 205.773,353.187 204.944,352.265 204.512 C 351.138 203.984,350.525 203.472,350.394 202.950 C 350.277 202.487,349.465 201.703,348.386 201.013 C 347.249 200.286,346.496 199.546,346.367 199.029 C 346.220 198.446,345.805 198.097,344.947 197.837 C 341.774 196.875,340.913 196.450,340.913 195.843 C 340.913 195.504,340.315 194.537,339.585 193.693 C 338.855 192.849,338.257 192.023,338.257 191.857 C 338.257 191.691,337.160 191.048,335.818 190.428 C 333.734 189.465,333.350 189.157,333.180 188.308 C 333.009 187.452,332.700 187.209,330.954 186.556 C 329.239 185.915,328.898 185.652,328.737 184.847 C 328.596 184.141,328.138 183.673,326.955 183.030 C 325.934 182.474,325.291 181.875,325.161 181.356 C 325.021 180.799,324.489 180.347,323.448 179.901 C 321.623 179.119,321.890 179.113,321.130 179.952 M62.752 183.380 C 62.302 183.629,61.768 184.333,61.564 184.945 C 61.310 185.706,60.767 186.295,59.847 186.808 C 59.093 187.229,58.328 187.977,58.107 188.511 C 57.810 189.227,57.229 189.654,55.754 190.240 C 54.378 190.787,53.692 191.268,53.447 191.860 C 53.255 192.324,52.413 193.136,51.575 193.666 C 50.738 194.196,49.918 195.016,49.752 195.489 C 49.551 196.065,48.880 196.622,47.714 197.178 C 46.202 197.900,45.962 198.149,45.871 199.087 C 45.814 199.680,45.633 200.166,45.469 200.166 C 44.110 200.166,41.389 201.664,40.983 202.636 C 40.737 203.224,39.998 204.067,39.340 204.509 C 38.683 204.950,37.924 205.768,37.654 206.326 C 37.339 206.978,36.734 207.496,35.961 207.776 C 35.300 208.015,34.052 208.940,33.189 209.831 C 31.629 211.441,31.352 211.551,28.754 211.596 C 27.752 211.613,27.315 211.821,26.780 212.532 L 26.093 213.446 26.178 262.325 C 26.257 307.713,26.303 311.244,26.825 311.773 C 27.738 312.699,63.530 312.717,64.455 311.792 C 65.062 311.185,65.084 309.843,65.143 269.193 C 65.176 246.108,65.304 224.422,65.427 221.001 C 66.207 199.294,65.830 183.874,64.504 183.269 C 63.557 182.838,63.754 182.825,62.752 183.380 M162.915 188.162 C 168.943 189.141,174.412 192.159,177.499 196.210 C 188.518 210.673,180.954 230.205,163.016 233.603 C 158.853 234.392,138.082 234.242,136.631 233.413 C 134.942 232.449,134.925 232.174,135.104 210.049 L 135.270 189.558 136.189 188.638 C 137.516 187.309,155.672 186.985,162.915 188.162 " stroke="none" fill="#213047" fill-rule="evenodd"></path><path id="path1" d="M191.535 22.513 C 190.164 23.134,183.843 28.130,182.065 29.998 C 181.695 30.387,180.799 31.205,180.074 31.816 C 176.590 34.751,175.055 36.086,174.284 36.853 C 173.411 37.722,167.340 42.968,165.311 44.607 C 164.672 45.123,162.730 46.864,160.996 48.475 C 159.261 50.086,156.423 52.544,154.689 53.936 C 152.954 55.328,150.564 57.342,149.378 58.411 C 148.191 59.480,146.772 60.699,146.224 61.120 C 145.676 61.541,145.120 62.056,144.988 62.266 C 144.856 62.476,143.773 63.363,142.582 64.238 C 141.390 65.113,140.415 65.928,140.415 66.048 C 140.415 66.169,139.267 67.154,137.864 68.237 C 136.461 69.321,134.394 71.104,133.270 72.199 C 132.146 73.295,130.091 75.061,128.703 76.124 C 127.315 77.188,124.938 79.167,123.421 80.523 C 121.905 81.878,119.768 83.788,118.672 84.767 C 117.577 85.746,115.213 87.763,113.420 89.251 C 111.627 90.738,109.760 92.322,109.271 92.770 C 107.101 94.758,101.749 99.400,98.091 102.467 C 95.900 104.304,92.838 107.032,91.286 108.530 C 89.734 110.029,88.054 111.471,87.552 111.735 C 87.050 112.000,86.639 112.342,86.639 112.496 C 86.639 112.863,80.478 118.387,78.640 119.668 C 77.855 120.216,76.009 121.712,74.539 122.993 C 73.070 124.274,71.419 125.609,70.871 125.959 C 70.324 126.310,69.603 126.943,69.269 127.366 C 68.936 127.789,68.040 128.566,67.278 129.091 C 66.516 129.617,65.131 130.774,64.201 131.662 C 63.271 132.551,61.641 134.025,60.580 134.938 C 59.518 135.851,57.767 137.456,56.688 138.506 C 55.609 139.556,54.606 140.415,54.458 140.415 C 54.173 140.415,49.767 144.018,48.611 145.196 C 48.236 145.579,46.620 147.012,45.022 148.382 C 43.424 149.751,41.266 151.693,40.227 152.697 C 39.188 153.701,37.666 154.966,36.845 155.507 C 36.024 156.049,34.731 157.104,33.971 157.851 C 33.211 158.599,31.717 159.865,30.652 160.666 C 27.715 162.872,26.880 163.708,26.345 164.979 C 25.838 166.185,25.695 194.689,26.131 207.707 L 26.312 213.090 26.981 212.239 C 27.522 211.551,27.839 211.427,28.642 211.587 C 30.311 211.921,32.078 211.232,33.232 209.796 C 33.822 209.062,34.910 208.235,35.728 207.899 C 36.683 207.506,37.343 206.963,37.662 206.307 C 37.928 205.759,38.683 204.950,39.340 204.509 C 39.998 204.067,40.737 203.224,40.983 202.636 C 41.389 201.664,44.110 200.166,45.469 200.166 C 45.633 200.166,45.814 199.680,45.871 199.087 C 45.962 198.149,46.202 197.900,47.714 197.178 C 48.880 196.622,49.551 196.065,49.752 195.489 C 49.918 195.016,50.738 194.196,51.575 193.666 C 52.413 193.136,53.255 192.324,53.447 191.860 C 53.692 191.268,54.378 190.787,55.754 190.240 C 57.229 189.654,57.810 189.227,58.107 188.511 C 58.330 187.971,59.089 187.234,59.861 186.808 C 60.830 186.273,61.311 185.743,61.535 184.960 C 61.921 183.613,63.409 182.707,64.380 183.226 C 65.332 183.736,65.354 183.710,65.584 181.826 C 65.785 180.186,65.936 179.956,68.155 177.925 C 69.452 176.739,72.162 174.108,74.177 172.080 C 76.193 170.052,78.146 168.297,78.517 168.180 C 78.889 168.063,79.456 167.521,79.778 166.976 C 80.100 166.431,80.880 165.591,81.511 165.109 C 82.142 164.628,83.218 163.692,83.903 163.030 C 84.587 162.368,86.262 160.855,87.624 159.668 C 88.987 158.481,90.406 157.148,90.777 156.706 C 91.148 156.263,91.975 155.402,92.614 154.793 C 93.253 154.183,93.875 153.574,93.996 153.439 C 94.999 152.323,96.585 150.852,98.913 148.880 C 100.421 147.602,103.019 145.279,104.686 143.719 C 106.354 142.158,108.270 140.466,108.945 139.959 C 109.619 139.451,110.834 138.413,111.643 137.651 C 114.144 135.297,114.963 134.615,116.680 133.450 C 118.505 132.212,121.631 129.668,124.530 127.062 C 125.560 126.135,126.665 125.230,126.985 125.051 C 127.304 124.872,128.015 124.214,128.565 123.588 C 129.114 122.963,130.133 122.160,130.829 121.805 C 131.525 121.450,132.244 120.879,132.428 120.536 C 132.755 119.924,139.193 114.239,143.860 110.441 C 146.048 108.661,148.346 106.642,153.017 102.396 C 156.184 99.518,159.141 97.047,159.900 96.646 C 160.301 96.434,160.872 95.851,161.169 95.350 C 161.465 94.850,162.332 93.999,163.095 93.460 C 164.713 92.316,167.423 89.970,171.899 85.838 C 173.662 84.211,175.540 82.614,176.074 82.289 C 176.607 81.963,178.176 80.598,179.559 79.255 C 180.943 77.912,182.747 76.300,183.568 75.672 C 184.390 75.044,185.838 73.856,186.787 73.033 C 191.429 69.002,191.806 68.958,195.307 72.021 C 198.146 74.505,202.705 78.291,204.438 79.604 C 205.284 80.244,206.274 81.039,206.639 81.372 C 207.004 81.705,208.274 82.865,209.461 83.950 C 212.877 87.074,214.797 88.714,216.818 90.238 C 217.852 91.017,218.784 91.878,218.888 92.150 C 218.992 92.422,219.629 92.875,220.304 93.156 C 220.978 93.438,222.138 94.251,222.881 94.962 C 224.991 96.983,227.822 99.486,229.134 100.493 C 229.791 100.998,231.380 102.307,232.665 103.402 C 233.949 104.498,235.640 105.883,236.421 106.481 C 237.203 107.079,238.963 108.435,240.332 109.494 C 241.701 110.554,243.494 111.879,244.315 112.438 C 245.137 112.998,246.257 113.930,246.805 114.510 C 247.353 115.090,248.697 116.239,249.793 117.063 C 251.842 118.604,254.402 120.808,257.350 123.568 C 258.276 124.436,259.159 125.145,259.312 125.145 C 259.466 125.145,260.470 125.929,261.545 126.888 C 262.620 127.846,264.215 129.154,265.089 129.793 C 265.963 130.432,267.211 131.456,267.862 132.070 C 268.513 132.684,270.390 134.273,272.033 135.602 C 273.676 136.931,275.459 138.483,275.996 139.051 C 276.532 139.619,277.192 140.083,277.463 140.083 C 277.734 140.083,278.568 140.718,279.317 141.494 C 280.065 142.270,281.496 143.476,282.496 144.175 C 284.496 145.571,286.601 147.265,291.023 151.037 C 292.629 152.407,294.465 153.921,295.104 154.404 C 295.743 154.886,297.087 156.045,298.091 156.980 C 299.095 157.915,300.645 159.238,301.536 159.921 C 302.426 160.603,304.069 161.998,305.187 163.020 C 306.305 164.042,308.116 165.677,309.212 166.654 C 317.521 174.061,319.941 176.620,320.420 178.502 C 320.816 180.062,320.913 180.189,321.368 179.734 C 322.101 179.002,324.867 180.185,325.161 181.356 C 325.291 181.875,325.934 182.474,326.955 183.030 C 328.138 183.673,328.596 184.141,328.737 184.847 C 328.898 185.652,329.239 185.915,330.954 186.556 C 332.700 187.209,333.009 187.452,333.180 188.308 C 333.350 189.157,333.734 189.465,335.818 190.428 C 337.160 191.048,338.257 191.691,338.257 191.857 C 338.257 192.023,338.855 192.849,339.585 193.693 C 340.315 194.537,340.913 195.504,340.913 195.843 C 340.913 196.450,341.774 196.875,344.947 197.837 C 345.805 198.097,346.220 198.446,346.367 199.029 C 346.496 199.546,347.249 200.286,348.386 201.013 C 349.465 201.703,350.277 202.487,350.394 202.950 C 350.525 203.472,351.138 203.984,352.265 204.512 C 353.187 204.944,354.311 205.782,354.762 206.374 C 355.294 207.071,355.984 207.526,356.719 207.664 C 357.367 207.786,358.150 208.252,358.545 208.752 L 359.236 209.627 359.149 207.469 C 359.101 206.282,359.161 204.788,359.281 204.149 C 359.957 200.557,360.485 165.889,359.896 163.809 C 359.451 162.240,357.103 159.798,354.205 157.887 C 353.411 157.364,352.198 156.393,351.509 155.729 C 350.820 155.066,349.260 153.776,348.042 152.863 C 346.824 151.950,344.823 150.307,343.596 149.212 C 342.369 148.116,340.254 146.228,338.898 145.017 C 334.777 141.335,333.254 140.083,332.897 140.083 C 332.568 140.083,331.515 139.122,325.987 133.776 C 324.571 132.407,322.096 130.091,320.486 128.631 C 318.876 127.170,316.801 125.273,315.875 124.414 C 314.949 123.556,313.444 122.255,312.531 121.524 C 311.618 120.792,310.498 119.887,310.041 119.511 C 302.394 113.219,300.711 111.901,300.066 111.696 C 299.647 111.563,298.620 110.821,297.785 110.047 C 296.949 109.273,295.668 108.267,294.938 107.810 C 294.207 107.354,292.543 106.101,291.239 105.026 C 287.763 102.160,286.491 101.189,284.819 100.126 C 283.994 99.602,283.202 98.971,283.058 98.723 C 282.915 98.475,282.134 97.816,281.324 97.259 C 280.514 96.702,279.187 95.690,278.376 95.011 C 277.565 94.332,275.673 92.805,274.173 91.618 C 272.672 90.432,270.457 88.589,269.249 87.524 C 264.577 83.404,264.211 83.089,257.406 77.344 C 256.001 76.158,254.119 74.482,253.226 73.620 C 252.333 72.759,250.971 71.614,250.199 71.077 C 249.428 70.540,248.556 69.826,248.261 69.490 C 247.966 69.154,246.628 67.909,245.286 66.722 C 243.945 65.535,242.181 63.923,241.366 63.139 C 240.551 62.355,239.126 61.162,238.199 60.488 C 237.273 59.813,235.518 58.310,234.301 57.148 C 233.083 55.986,231.514 54.657,230.815 54.195 C 230.116 53.733,228.946 52.797,228.216 52.114 C 227.485 51.431,225.394 49.655,223.568 48.167 C 219.809 45.103,217.687 43.261,215.668 41.308 C 214.901 40.566,213.004 38.930,211.452 37.671 C 209.900 36.412,208.102 34.927,207.456 34.371 C 206.810 33.816,205.615 32.810,204.800 32.137 C 200.378 28.480,198.506 26.828,198.506 26.585 C 198.506 26.435,197.946 25.918,197.261 25.437 C 196.577 24.955,195.344 24.043,194.523 23.409 C 193.029 22.257,192.470 22.089,191.535 22.513 " stroke="none" fill="#bd3536" fill-rule="evenodd"></path><path id="path2" d="M11.508 7.856 C 11.386 7.978,11.286 80.949,11.286 170.014 L 11.286 331.950 197.345 331.950 L 383.403 331.950 383.320 169.876 L 383.237 7.801 197.483 7.718 C 95.319 7.672,11.630 7.734,11.508 7.856 M193.964 20.285 C 194.363 20.488,195.159 21.123,195.734 21.696 C 196.308 22.269,197.575 23.336,198.549 24.066 C 199.523 24.797,201.544 26.515,203.039 27.884 C 204.535 29.253,206.759 31.195,207.982 32.199 C 210.976 34.659,213.754 37.070,214.816 38.131 C 215.297 38.611,216.454 39.599,217.389 40.325 C 218.323 41.052,219.087 41.757,219.087 41.892 C 219.087 42.027,219.871 42.644,220.830 43.264 C 221.788 43.884,222.946 44.798,223.402 45.296 C 223.859 45.794,224.977 46.748,225.887 47.416 C 226.797 48.084,228.648 49.718,229.999 51.047 C 231.351 52.375,232.645 53.570,232.876 53.702 C 233.962 54.324,247.389 65.881,247.860 66.600 C 248.155 67.050,248.859 67.618,249.426 67.862 C 249.993 68.107,251.801 69.531,253.444 71.028 C 255.087 72.525,257.510 74.730,258.828 75.928 C 260.146 77.127,262.029 78.720,263.014 79.468 C 265.267 81.181,271.002 86.053,271.144 86.375 C 271.203 86.508,272.323 87.445,273.634 88.457 C 274.944 89.470,276.988 91.049,278.174 91.965 C 279.361 92.882,281.154 94.296,282.158 95.107 C 283.162 95.918,284.880 97.305,285.975 98.188 C 287.071 99.071,288.525 100.132,289.207 100.544 C 289.889 100.956,290.706 101.731,291.022 102.265 C 291.337 102.799,291.787 103.237,292.021 103.237 C 292.255 103.237,293.007 103.734,293.692 104.342 C 294.377 104.950,295.628 105.914,296.471 106.485 C 297.314 107.057,298.808 108.215,299.791 109.060 C 300.773 109.905,302.249 110.961,303.071 111.406 C 303.892 111.852,305.237 112.751,306.058 113.404 C 306.880 114.057,308.143 115.061,308.865 115.636 C 312.986 118.914,316.441 121.884,318.365 123.801 C 320.968 126.395,328.520 133.485,330.619 135.305 C 331.439 136.016,332.691 137.190,333.402 137.915 C 334.112 138.640,335.234 139.481,335.895 139.785 C 336.555 140.089,337.621 140.840,338.264 141.455 C 344.510 147.428,346.977 149.637,348.694 150.796 C 349.800 151.542,351.527 152.847,352.531 153.695 C 353.535 154.543,355.178 155.811,356.183 156.512 C 362.801 161.135,363.005 162.120,362.139 185.228 C 361.950 190.249,361.728 197.270,361.644 200.830 C 361.560 204.390,361.340 211.187,361.154 215.934 C 360.968 220.714,360.826 244.253,360.837 268.692 L 360.858 312.820 360.007 313.671 L 359.155 314.523 340.909 314.614 C 319.903 314.719,319.830 314.713,318.741 312.857 L 317.966 311.535 318.168 285.670 C 318.279 271.444,318.434 259.702,318.512 259.576 C 318.589 259.451,318.666 241.082,318.683 218.756 L 318.713 178.165 317.614 177.011 C 317.009 176.376,315.095 174.660,313.361 173.196 C 311.627 171.733,310.158 170.407,310.098 170.249 C 310.037 170.092,309.141 169.368,308.106 168.639 C 307.071 167.911,305.834 166.823,305.356 166.222 C 304.879 165.620,303.161 164.025,301.539 162.677 C 299.917 161.329,298.286 159.906,297.915 159.515 C 297.544 159.124,296.542 158.324,295.689 157.736 C 294.836 157.149,293.925 156.365,293.665 155.994 C 293.405 155.623,292.588 154.916,291.849 154.423 C 291.111 153.930,289.062 152.332,287.296 150.871 C 285.530 149.411,283.155 147.544,282.017 146.722 C 279.820 145.134,278.116 143.662,276.199 141.695 C 275.551 141.030,274.722 140.393,274.357 140.281 C 273.992 140.168,273.014 139.443,272.185 138.669 C 271.355 137.895,269.824 136.608,268.782 135.810 C 267.740 135.012,266.888 134.240,266.888 134.094 C 266.888 133.948,265.177 132.543,263.085 130.972 C 260.993 129.401,259.197 127.978,259.093 127.810 C 258.845 127.409,251.684 121.403,249.112 119.439 C 248.007 118.596,246.290 117.168,245.295 116.266 C 241.507 112.832,240.448 111.946,238.838 110.859 C 237.087 109.678,233.094 106.398,232.531 105.679 C 232.349 105.445,231.723 104.912,231.141 104.494 C 228.502 102.600,225.184 99.975,224.730 99.424 C 224.198 98.777,218.331 93.999,217.389 93.444 C 216.697 93.037,212.650 89.369,209.011 85.851 C 207.524 84.413,205.784 82.883,205.145 82.449 C 202.017 80.330,200.690 79.265,196.038 75.144 C 192.260 71.798,191.426 71.536,189.651 73.132 C 188.953 73.760,187.238 75.226,185.841 76.390 C 180.838 80.556,175.557 85.200,172.282 88.314 C 171.095 89.442,168.010 92.137,165.425 94.302 C 162.840 96.468,160.674 98.355,160.612 98.497 C 160.549 98.639,159.752 99.353,158.839 100.083 C 157.927 100.813,156.881 101.724,156.516 102.106 C 156.150 102.489,154.880 103.601,153.693 104.579 C 152.506 105.556,151.153 106.737,150.687 107.203 C 150.220 107.669,148.825 108.871,147.586 109.876 C 146.347 110.880,144.563 112.470,143.621 113.409 C 142.679 114.348,140.520 116.289,138.822 117.724 C 137.124 119.158,134.809 121.119,133.677 122.081 C 132.544 123.042,130.685 124.587,129.544 125.513 C 128.402 126.440,127.469 127.308,127.469 127.443 C 127.469 127.578,126.759 128.190,125.892 128.804 C 125.025 129.418,123.793 130.429,123.154 131.051 C 122.515 131.673,121.394 132.573,120.664 133.050 C 118.901 134.203,116.464 136.158,114.025 138.376 C 110.782 141.324,109.092 142.816,107.201 144.398 C 98.609 151.588,96.289 153.676,93.263 156.945 C 90.061 160.404,85.787 164.396,81.549 167.886 C 80.606 168.663,79.724 169.409,79.590 169.545 C 79.455 169.681,78.839 170.315,78.219 170.954 C 77.600 171.593,75.120 173.983,72.709 176.266 C 66.870 181.791,66.549 182.544,67.748 187.905 C 67.969 188.897,67.995 192.790,67.823 199.191 C 67.569 208.629,67.535 224.715,67.756 230.871 C 67.815 232.515,67.830 234.456,67.789 235.187 C 67.540 239.644,67.490 260.802,67.695 274.855 C 68.120 303.918,67.760 312.318,66.025 313.889 C 64.997 314.819,28.383 314.908,26.514 313.984 C 24.664 313.070,24.743 315.163,24.507 261.245 C 24.385 233.220,24.138 207.228,23.959 203.485 C 23.779 199.743,23.527 189.959,23.399 181.743 L 23.164 166.805 24.279 164.651 C 25.275 162.727,25.980 162.007,30.871 157.919 C 36.599 153.132,39.119 150.962,41.125 149.088 C 41.784 148.473,42.996 147.433,43.817 146.778 C 44.639 146.123,46.357 144.602,47.635 143.398 C 48.913 142.194,50.556 140.774,51.286 140.244 C 52.569 139.312,54.561 137.535,57.060 135.097 C 57.718 134.454,58.855 133.484,59.585 132.941 C 60.315 132.398,60.988 131.868,61.079 131.763 C 61.300 131.508,67.686 125.902,71.070 122.993 C 72.553 121.718,75.057 119.672,76.634 118.446 C 78.211 117.220,80.303 115.499,81.282 114.623 C 82.261 113.746,83.829 112.454,84.767 111.750 C 85.706 111.047,88.415 108.634,90.788 106.389 C 93.162 104.143,96.822 100.924,98.921 99.235 C 101.021 97.546,103.192 95.701,103.746 95.136 C 104.300 94.571,106.018 93.016,107.563 91.680 C 109.109 90.345,110.672 88.994,111.037 88.679 C 111.402 88.363,112.523 87.440,113.527 86.629 C 116.217 84.454,118.333 82.603,121.494 79.660 C 125.204 76.204,129.609 72.490,131.148 71.518 C 131.826 71.090,132.434 70.619,132.498 70.473 C 132.562 70.327,133.286 69.694,134.108 69.067 C 134.929 68.439,136.124 67.447,136.763 66.862 C 137.961 65.765,141.057 63.081,142.478 61.909 C 144.191 60.495,148.263 56.914,149.212 55.986 C 149.759 55.451,150.730 54.628,151.369 54.157 C 152.750 53.141,155.508 50.770,161.328 45.599 C 162.332 44.706,163.743 43.530,164.463 42.984 C 165.182 42.438,166.446 41.394,167.270 40.664 C 169.639 38.565,173.412 35.117,173.776 34.720 C 173.959 34.520,174.705 33.919,175.436 33.384 C 176.958 32.269,178.576 30.914,181.411 28.381 C 188.713 21.856,192.389 19.485,193.964 20.285 M167.967 158.774 C 169.519 159.084,172.346 159.644,174.250 160.019 C 185.855 162.305,196.663 169.273,202.539 178.257 C 205.710 183.106,207.874 186.919,208.456 188.687 C 208.692 189.402,209.153 190.448,209.481 191.010 C 209.809 191.573,210.249 192.998,210.460 194.177 C 210.670 195.356,211.061 196.743,211.329 197.260 C 212.788 200.082,212.769 220.786,211.303 224.730 C 210.998 225.552,210.559 227.080,210.328 228.126 C 210.097 229.172,209.672 230.292,209.383 230.616 C 209.095 230.939,208.684 231.858,208.471 232.657 C 208.069 234.169,205.171 239.672,204.168 240.830 C 203.852 241.195,203.278 242.017,202.893 242.656 C 201.551 244.884,197.907 248.128,191.518 252.780 C 189.979 253.901,189.851 255.313,191.160 256.728 C 191.516 257.113,192.438 258.622,193.209 260.083 C 193.980 261.544,194.803 262.963,195.037 263.237 C 195.458 263.729,197.101 266.735,199.935 272.199 C 200.740 273.751,201.794 275.602,202.276 276.312 C 202.759 277.022,203.156 277.769,203.160 277.972 C 203.163 278.174,203.611 278.998,204.155 279.801 C 204.700 280.604,205.145 281.515,205.145 281.824 C 205.145 282.134,205.431 282.645,205.779 282.961 C 206.128 283.276,206.503 283.893,206.613 284.331 C 206.723 284.769,207.174 285.660,207.615 286.309 C 208.056 286.959,208.512 287.924,208.628 288.453 C 208.744 288.982,209.062 289.600,209.335 289.826 C 209.608 290.052,210.053 290.772,210.325 291.426 C 210.597 292.079,211.176 293.137,211.612 293.776 C 212.049 294.415,212.936 295.909,213.584 297.095 C 215.174 300.007,216.248 301.917,217.411 303.900 C 217.947 304.813,218.690 306.110,219.063 306.782 C 219.436 307.455,219.895 308.100,220.083 308.216 C 221.600 309.153,222.076 312.250,220.915 313.630 L 220.088 314.613 205.418 314.502 L 190.748 314.392 189.473 312.901 C 188.772 312.081,187.976 310.915,187.704 310.311 C 186.824 308.354,183.405 302.111,182.983 301.688 C 182.757 301.463,182.573 301.105,182.573 300.893 C 182.573 300.681,182.214 299.979,181.776 299.334 C 181.338 298.688,180.868 297.810,180.733 297.383 C 180.597 296.956,180.070 296.082,179.560 295.440 C 179.050 294.799,178.079 293.228,177.401 291.950 C 175.151 287.709,174.972 287.393,174.503 286.848 C 174.246 286.551,173.027 284.290,171.794 281.826 C 170.560 279.361,169.286 276.971,168.963 276.515 C 168.639 276.058,168.129 275.162,167.828 274.523 C 167.527 273.884,166.449 271.793,165.431 269.876 C 164.413 267.959,163.238 265.718,162.821 264.896 C 162.403 264.075,161.660 263.029,161.170 262.573 L 160.279 261.743 149.720 261.632 C 138.267 261.512,137.298 261.640,136.953 263.326 C 136.621 264.951,136.425 275.256,136.391 292.946 C 136.353 312.790,136.328 313.102,134.717 314.140 C 133.760 314.756,106.711 314.712,105.181 314.092 C 103.589 313.447,103.101 311.388,103.376 306.465 C 103.505 304.142,103.767 274.456,103.957 240.498 C 104.147 206.539,104.399 174.613,104.517 169.550 L 104.730 160.345 105.649 159.426 C 106.846 158.229,108.581 158.168,140.913 158.193 C 162.321 158.209,165.474 158.277,167.967 158.774 M252.614 159.412 C 258.424 160.537,262.124 161.803,267.718 164.580 C 272.555 166.981,282.600 178.245,284.129 182.983 C 284.350 183.665,284.672 184.311,284.845 184.418 C 286.122 185.207,288.963 193.935,289.468 198.620 C 289.628 200.110,289.934 202.224,290.148 203.320 C 290.945 207.401,289.929 219.875,288.525 223.238 C 288.144 224.150,287.676 225.509,287.485 226.257 C 287.054 227.948,284.085 233.993,283.161 235.060 C 282.785 235.495,281.714 237.025,280.781 238.460 C 278.824 241.469,271.443 249.014,268.267 251.251 C 265.359 253.300,264.966 254.557,266.491 256.929 C 266.784 257.386,267.786 259.253,268.718 261.079 C 269.649 262.905,270.649 264.772,270.939 265.228 C 271.229 265.685,271.577 266.432,271.713 266.888 C 271.992 267.824,273.618 270.724,277.992 278.086 C 281.696 284.320,286.651 293.053,288.496 296.598 C 290.321 300.102,291.546 302.342,293.893 306.464 C 296.248 310.598,296.559 312.126,295.335 313.549 L 294.498 314.523 286.751 314.634 C 268.044 314.901,264.564 314.475,262.790 311.701 C 262.499 311.245,262.110 310.647,261.926 310.373 C 261.743 310.100,261.368 309.353,261.094 308.714 C 260.819 308.075,260.455 307.328,260.285 307.054 C 258.732 304.550,256.277 300.085,256.088 299.419 C 255.958 298.963,255.684 298.386,255.478 298.138 C 255.094 297.675,254.653 296.850,251.784 291.223 C 250.871 289.432,249.936 287.768,249.706 287.525 C 249.476 287.281,248.691 285.834,247.963 284.308 C 247.235 282.781,246.484 281.437,246.295 281.320 C 246.105 281.203,245.604 280.410,245.180 279.558 C 242.392 273.949,237.771 265.144,236.924 263.827 C 235.574 261.725,235.075 261.609,227.054 261.531 C 213.898 261.402,210.711 260.938,209.918 259.041 C 209.080 257.035,209.445 244.100,210.451 240.166 C 210.637 239.436,210.916 237.242,211.069 235.290 C 211.455 230.396,212.799 228.854,215.690 229.990 C 217.656 230.762,233.749 230.597,238.174 229.760 C 245.663 228.342,247.923 227.253,251.468 223.353 C 258.783 215.305,257.690 201.298,249.166 193.865 C 247.484 192.398,242.940 190.222,241.542 190.215 C 240.838 190.211,239.419 189.992,238.388 189.729 C 236.971 189.367,233.616 189.225,224.618 189.148 L 212.721 189.046 212.036 188.216 C 211.463 187.521,210.744 186.106,209.001 182.241 C 208.877 181.967,208.370 181.064,207.874 180.233 C 207.377 179.403,206.672 178.222,206.307 177.609 C 205.355 176.011,202.452 172.694,198.159 168.299 C 192.876 162.890,192.223 161.499,193.996 159.438 C 195.084 158.173,196.265 158.131,224.896 158.359 L 248.133 158.544 252.614 159.412 M138.008 190.411 C 136.939 190.975,137.002 190.004,136.897 207.469 C 136.793 224.675,137.032 230.648,137.839 231.080 C 138.257 231.304,141.473 231.418,146.676 231.393 C 151.224 231.372,155.353 231.500,155.977 231.683 C 159.062 232.587,170.391 229.499,172.262 227.244 C 172.523 226.930,173.301 226.385,173.992 226.033 C 174.682 225.680,175.420 225.056,175.630 224.646 C 175.841 224.236,176.579 223.218,177.271 222.383 C 177.962 221.549,178.752 220.130,179.026 219.230 C 179.300 218.330,179.794 217.071,180.124 216.432 C 181.154 214.436,180.989 208.064,179.816 204.503 C 177.108 196.286,171.322 191.640,162.215 190.370 C 157.207 189.672,139.351 189.702,138.008 190.411 " stroke="none" fill="#f3f3f3" fill-rule="evenodd"></path><path id="path3" d="M10.634 7.613 C 10.015 8.771,10.168 331.950,10.788 331.950 C 11.229 331.950,11.295 313.635,11.369 169.876 L 11.452 7.801 197.344 7.801 L 383.237 7.801 383.320 169.876 C 383.375 277.538,383.514 331.950,383.735 331.950 C 384.255 331.950,384.189 7.890,383.668 7.369 C 382.872 6.573,11.061 6.816,10.634 7.613 M255.939 73.552 C 255.948 74.126,256.430 74.599,257.261 74.851 C 257.718 74.990,258.017 75.047,257.925 74.979 C 257.834 74.911,257.349 74.493,256.846 74.050 C 256.344 73.607,255.936 73.383,255.939 73.552 M264.232 80.789 C 264.232 81.309,264.757 81.779,265.726 82.127 C 266.248 82.315,266.182 82.150,265.415 81.349 C 264.307 80.193,264.232 80.158,264.232 80.789 M73.680 120.851 L 72.531 121.868 73.524 121.654 C 74.535 121.437,75.007 120.993,75.016 120.249 C 75.023 119.680,74.984 119.698,73.680 120.851 M333.610 138.506 C 333.610 138.804,333.769 139.146,333.964 139.267 C 334.533 139.619,334.589 139.304,334.081 138.608 C 333.687 138.070,333.610 138.053,333.610 138.506 M351.203 153.029 C 351.399 153.394,351.726 153.693,351.930 153.693 C 352.135 153.693,352.032 153.394,351.701 153.029 C 351.371 152.664,351.044 152.365,350.974 152.365 C 350.905 152.365,351.008 152.664,351.203 153.029 M111.625 158.340 C 106.640 158.504,106.556 158.519,105.649 159.426 L 104.730 160.345 104.517 169.550 C 104.399 174.613,104.147 206.539,103.957 240.498 C 103.767 274.456,103.505 304.142,103.376 306.465 C 103.101 311.388,103.589 313.447,105.181 314.092 C 106.711 314.712,133.760 314.756,134.717 314.140 C 136.328 313.102,136.353 312.790,136.391 292.946 C 136.425 275.256,136.621 264.951,136.953 263.326 C 137.298 261.640,138.267 261.512,149.720 261.632 L 160.279 261.743 161.170 262.573 C 161.660 263.029,162.403 264.075,162.821 264.896 C 163.238 265.718,164.413 267.959,165.431 269.876 C 166.449 271.793,167.527 273.884,167.828 274.523 C 168.129 275.162,168.639 276.058,168.963 276.515 C 169.286 276.971,170.560 279.361,171.794 281.826 C 173.027 284.290,174.246 286.551,174.503 286.848 C 174.972 287.393,175.151 287.709,177.401 291.950 C 178.079 293.228,179.050 294.799,179.560 295.440 C 180.070 296.082,180.597 296.956,180.733 297.383 C 180.868 297.810,181.338 298.688,181.776 299.334 C 182.214 299.979,182.573 300.681,182.573 300.893 C 182.573 301.105,182.757 301.463,182.983 301.688 C 183.405 302.111,186.824 308.354,187.704 310.311 C 187.976 310.915,188.772 312.081,189.473 312.901 L 190.748 314.392 205.418 314.502 L 220.088 314.613 220.915 313.630 C 222.076 312.250,221.600 309.153,220.083 308.216 C 219.895 308.100,219.436 307.455,219.063 306.782 C 218.690 306.110,217.947 304.813,217.411 303.900 C 216.248 301.917,215.174 300.007,213.584 297.095 C 212.936 295.909,212.049 294.415,211.612 293.776 C 211.176 293.137,210.597 292.079,210.325 291.426 C 210.053 290.772,209.608 290.052,209.335 289.826 C 209.062 289.600,208.744 288.982,208.628 288.453 C 208.512 287.924,208.056 286.959,207.615 286.309 C 207.174 285.660,206.723 284.769,206.613 284.331 C 206.503 283.893,206.128 283.276,205.779 282.961 C 205.431 282.645,205.145 282.134,205.145 281.824 C 205.145 281.515,204.700 280.604,204.155 279.801 C 203.611 278.998,203.163 278.174,203.160 277.972 C 203.156 277.769,202.759 277.022,202.276 276.312 C 201.794 275.602,200.740 273.751,199.935 272.199 C 197.101 266.735,195.458 263.729,195.037 263.237 C 194.803 262.963,193.980 261.544,193.209 260.083 C 192.438 258.622,191.516 257.113,191.160 256.728 C 189.851 255.313,189.979 253.901,191.518 252.780 C 197.907 248.128,201.551 244.884,202.893 242.656 C 203.278 242.017,203.852 241.195,204.168 240.830 C 205.171 239.672,208.069 234.169,208.471 232.657 C 208.684 231.858,209.095 230.939,209.383 230.616 C 209.672 230.292,210.097 229.172,210.328 228.126 C 210.559 227.080,210.998 225.552,211.303 224.730 C 212.769 220.786,212.788 200.082,211.329 197.260 C 211.061 196.743,210.670 195.356,210.460 194.177 C 210.249 192.998,209.809 191.573,209.481 191.010 C 209.153 190.448,208.692 189.402,208.456 188.687 C 207.874 186.919,205.710 183.106,202.539 178.257 C 196.663 169.273,185.855 162.305,174.250 160.019 C 172.346 159.644,169.519 159.084,167.967 158.774 C 165.089 158.200,125.246 157.893,111.625 158.340 M198.228 158.340 C 191.260 158.677,191.242 161.217,198.159 168.299 C 202.452 172.694,205.355 176.011,206.307 177.609 C 206.672 178.222,207.377 179.403,207.874 180.233 C 208.370 181.064,208.877 181.967,209.001 182.241 C 210.744 186.106,211.463 187.521,212.036 188.216 L 212.721 189.046 224.618 189.148 C 233.616 189.225,236.971 189.367,238.388 189.729 C 239.419 189.992,240.838 190.211,241.542 190.215 C 245.623 190.237,252.020 195.557,254.609 201.083 C 257.288 206.801,256.442 216.985,252.896 221.687 C 249.193 226.599,246.197 228.241,238.174 229.760 C 233.749 230.597,217.656 230.762,215.690 229.990 C 212.799 228.854,211.455 230.396,211.069 235.290 C 210.916 237.242,210.637 239.436,210.451 240.166 C 209.445 244.100,209.080 257.035,209.918 259.041 C 210.711 260.938,213.898 261.402,227.054 261.531 C 235.075 261.609,235.574 261.725,236.924 263.827 C 237.771 265.144,242.392 273.949,245.180 279.558 C 245.604 280.410,246.105 281.203,246.295 281.320 C 246.484 281.437,247.235 282.781,247.963 284.308 C 248.691 285.834,249.476 287.281,249.706 287.525 C 249.936 287.768,250.871 289.432,251.784 291.223 C 254.653 296.850,255.094 297.675,255.478 298.138 C 255.684 298.386,255.958 298.963,256.088 299.419 C 256.277 300.085,258.732 304.550,260.285 307.054 C 260.455 307.328,260.819 308.075,261.094 308.714 C 261.368 309.353,261.743 310.100,261.926 310.373 C 262.110 310.647,262.499 311.245,262.790 311.701 C 264.564 314.475,268.044 314.901,286.751 314.634 L 294.498 314.523 295.335 313.549 C 296.559 312.126,296.248 310.598,293.893 306.464 C 291.546 302.342,290.321 300.102,288.496 296.598 C 286.651 293.053,281.696 284.320,277.992 278.086 C 273.618 270.724,271.992 267.824,271.713 266.888 C 271.577 266.432,271.229 265.685,270.939 265.228 C 270.649 264.772,269.649 262.905,268.718 261.079 C 267.786 259.253,266.784 257.386,266.491 256.929 C 264.966 254.557,265.359 253.300,268.267 251.251 C 271.443 249.014,278.824 241.469,280.781 238.460 C 281.714 237.025,282.785 235.495,283.161 235.060 C 284.085 233.993,287.054 227.948,287.485 226.257 C 287.676 225.509,288.144 224.150,288.525 223.238 C 289.929 219.875,290.945 207.401,290.148 203.320 C 289.934 202.224,289.628 200.110,289.468 198.620 C 288.963 193.935,286.122 185.207,284.845 184.418 C 284.672 184.311,284.350 183.665,284.129 182.983 C 282.600 178.245,272.555 166.981,267.718 164.580 C 262.124 161.803,258.424 160.537,252.614 159.412 L 248.133 158.544 224.896 158.359 C 212.116 158.257,200.116 158.249,198.228 158.340 M167.501 161.162 C 170.153 161.618,172.796 161.992,173.375 161.992 C 175.229 161.992,182.845 164.804,187.624 167.253 C 195.009 171.039,199.302 175.563,205.427 186.016 C 207.933 190.291,208.680 192.325,210.323 199.336 C 211.662 205.051,211.871 218.384,210.666 221.215 C 210.363 221.929,209.952 223.572,209.753 224.866 C 209.554 226.161,209.044 227.967,208.618 228.880 C 208.192 229.793,207.740 230.988,207.612 231.535 C 207.484 232.083,207.200 232.755,206.980 233.029 C 206.590 233.514,205.333 235.680,204.101 237.990 C 203.432 239.245,198.553 244.761,197.199 245.794 C 196.731 246.150,195.590 247.124,194.663 247.957 C 193.736 248.791,192.082 249.950,190.987 250.534 C 187.449 252.419,187.292 256.454,190.649 259.211 C 190.954 259.461,191.203 259.842,191.203 260.058 C 191.203 260.273,192.043 261.860,193.070 263.586 C 194.097 265.311,195.603 267.992,196.418 269.544 C 198.090 272.729,198.827 274.032,201.465 278.475 C 202.485 280.192,203.992 282.825,204.813 284.327 C 205.635 285.829,206.466 287.262,206.661 287.512 C 206.856 287.762,207.807 289.535,208.775 291.452 C 209.743 293.369,210.962 295.685,211.483 296.598 C 212.004 297.510,212.814 299.004,213.282 299.917 C 214.736 302.753,217.230 307.173,217.965 308.216 C 221.036 312.578,221.544 312.425,204.813 312.184 L 191.037 311.986 190.096 310.931 C 189.578 310.350,188.595 308.680,187.911 307.220 C 187.227 305.759,185.522 302.520,184.122 300.020 C 182.722 297.521,181.577 295.369,181.577 295.238 C 181.577 295.107,181.231 294.538,180.809 293.973 C 179.945 292.818,178.211 289.742,175.924 285.311 C 173.667 280.937,171.920 277.745,169.838 274.191 C 168.822 272.456,167.227 269.618,166.295 267.884 C 161.295 258.584,163.416 259.589,148.780 259.587 C 136.401 259.585,135.564 259.679,134.927 261.150 C 134.786 261.476,134.603 272.946,134.520 286.639 C 134.423 302.796,134.251 311.681,134.032 311.950 C 133.379 312.753,106.807 312.528,106.069 311.713 C 105.325 310.891,104.835 306.592,105.066 302.905 C 105.306 299.062,105.525 275.913,105.720 233.859 C 105.958 182.542,106.408 162.083,107.321 161.079 L 108.000 160.332 135.340 160.332 L 162.679 160.332 167.501 161.162 M249.959 161.252 C 256.292 162.402,256.909 162.544,259.577 163.473 C 273.204 168.214,283.697 180.554,286.776 195.461 C 286.977 196.434,287.278 197.486,287.446 197.799 C 287.613 198.112,287.931 200.752,288.152 203.665 C 288.811 212.339,288.293 216.985,285.768 225.062 C 283.585 232.045,274.243 244.723,268.748 248.162 C 264.479 250.833,264.133 251.110,263.660 252.242 C 262.857 254.164,263.250 255.450,266.410 261.245 C 267.256 262.797,268.961 266.008,270.199 268.382 C 273.056 273.861,274.181 275.879,274.755 276.555 C 275.230 277.114,279.502 284.498,279.502 284.761 C 279.502 284.843,280.045 285.728,280.707 286.727 C 281.370 287.725,283.556 291.625,285.565 295.392 C 287.573 299.159,289.607 302.933,290.085 303.778 C 293.864 310.464,294.196 311.156,293.870 311.673 C 293.181 312.767,267.067 312.644,265.361 311.539 C 264.731 311.131,262.748 307.766,259.001 300.747 C 258.269 299.378,256.759 296.654,255.643 294.695 C 254.527 292.736,252.441 288.852,251.006 286.064 C 249.571 283.277,247.423 279.203,246.233 277.012 C 245.042 274.822,243.142 271.237,242.009 269.046 C 236.782 258.935,237.803 259.664,228.548 259.422 C 210.926 258.961,211.120 259.033,211.121 252.984 C 211.122 249.119,211.970 235.173,212.288 233.782 C 212.530 232.727,214.131 231.968,215.323 232.345 C 217.556 233.050,234.350 233.086,237.012 232.391 C 238.382 232.033,240.324 231.635,241.328 231.505 C 254.690 229.778,262.436 212.338,255.717 199.106 C 253.017 193.789,246.550 188.704,241.494 187.922 C 240.216 187.724,238.648 187.411,238.010 187.225 C 237.327 187.026,232.266 186.888,225.687 186.888 C 211.581 186.888,212.911 187.202,211.162 183.458 C 209.862 180.674,206.986 175.820,204.940 172.955 C 204.487 172.322,202.389 170.006,200.278 167.810 C 195.528 162.869,194.628 160.931,196.930 160.604 C 201.084 160.014,246.177 160.565,249.959 161.252 M78.644 169.585 C 78.097 169.801,76.017 172.043,76.017 172.417 C 76.017 172.905,78.011 171.552,78.682 170.608 C 79.470 169.503,79.461 169.264,78.644 169.585 M318.862 181.369 C 318.759 182.488,318.614 202.747,318.539 226.390 C 318.464 250.033,318.305 278.863,318.186 290.456 L 317.969 311.535 318.742 312.857 C 319.829 314.713,319.902 314.719,340.909 314.614 L 359.155 314.523 359.981 313.693 L 360.807 312.863 360.963 262.407 C 361.049 234.656,361.219 211.227,361.342 210.342 C 361.544 208.892,361.505 208.746,360.949 208.852 C 360.584 208.921,360.288 209.307,360.225 209.796 C 360.167 210.250,359.900 210.792,359.633 210.999 C 359.212 211.326,359.115 218.091,358.910 261.622 L 358.672 311.867 357.510 312.268 C 355.687 312.898,322.199 312.822,320.968 312.185 L 320.061 311.716 320.185 278.763 C 320.253 260.638,320.351 231.007,320.403 212.915 L 320.498 180.020 319.773 179.678 C 319.078 179.350,319.040 179.420,318.862 181.369 M66.094 183.282 C 65.307 183.579,65.302 183.610,65.569 186.646 C 65.865 190.027,65.778 211.243,65.427 221.001 C 65.304 224.422,65.176 246.108,65.143 269.193 C 65.084 309.843,65.062 311.185,64.455 311.792 C 63.530 312.717,27.738 312.699,26.824 311.773 C 26.302 311.244,26.256 307.714,26.179 261.992 C 26.133 234.925,25.987 212.780,25.855 212.780 C 25.723 212.780,25.375 212.688,25.082 212.576 C 24.482 212.346,24.421 311.565,25.020 312.794 C 25.878 314.555,26.210 314.582,46.537 314.537 C 67.831 314.489,66.231 314.706,67.196 311.745 C 67.751 310.043,67.971 293.763,67.695 274.855 C 67.490 260.802,67.540 239.644,67.789 235.187 C 67.830 234.456,67.815 232.515,67.756 230.871 C 67.535 224.715,67.569 208.629,67.823 199.191 C 67.997 192.733,67.970 188.906,67.744 187.905 C 67.556 187.072,67.352 185.684,67.291 184.821 C 67.159 182.953,67.115 182.896,66.094 183.282 M141.666 187.552 C 137.227 187.714,137.084 187.742,136.189 188.638 L 135.270 189.558 135.104 210.049 C 134.925 232.174,134.942 232.449,136.631 233.413 C 138.082 234.242,158.853 234.392,163.016 233.603 C 189.146 228.653,189.065 192.409,162.915 188.162 C 160.139 187.711,147.367 187.344,141.666 187.552 M162.215 190.370 C 171.322 191.640,177.108 196.286,179.816 204.503 C 180.989 208.064,181.154 214.436,180.124 216.432 C 179.794 217.071,179.300 218.330,179.026 219.230 C 178.752 220.130,177.962 221.549,177.271 222.383 C 176.579 223.218,175.841 224.236,175.630 224.646 C 175.420 225.056,174.682 225.680,173.992 226.033 C 173.301 226.385,172.523 226.930,172.262 227.244 C 170.391 229.499,159.062 232.587,155.977 231.683 C 155.353 231.500,151.224 231.372,146.676 231.393 C 141.473 231.418,138.257 231.304,137.839 231.080 C 137.032 230.648,136.793 224.675,136.897 207.469 C 137.002 190.004,136.939 190.975,138.008 190.411 C 139.351 189.702,157.207 189.672,162.215 190.370 " stroke="none" fill="#949cac" fill-rule="evenodd"></path><path id="path4" d="M191.348 20.679 C 189.305 21.787,185.419 24.800,181.411 28.381 C 178.576 30.914,176.958 32.269,175.436 33.384 C 174.705 33.919,173.959 34.520,173.776 34.720 C 173.412 35.117,169.639 38.565,167.270 40.664 C 166.446 41.394,165.182 42.438,164.463 42.984 C 163.743 43.530,162.332 44.706,161.328 45.599 C 155.508 50.770,152.750 53.141,151.369 54.157 C 150.730 54.628,149.759 55.451,149.212 55.986 C 148.263 56.914,144.191 60.495,142.478 61.909 C 141.057 63.081,137.961 65.765,136.763 66.862 C 136.124 67.447,134.929 68.439,134.108 69.067 C 133.286 69.694,132.562 70.327,132.498 70.473 C 132.434 70.619,131.826 71.090,131.148 71.518 C 129.609 72.490,125.204 76.204,121.494 79.660 C 118.333 82.603,116.217 84.454,113.527 86.629 C 112.523 87.440,111.402 88.363,111.037 88.679 C 110.672 88.994,109.109 90.345,107.563 91.680 C 106.018 93.016,104.300 94.571,103.746 95.136 C 103.192 95.701,101.021 97.546,98.921 99.235 C 96.822 100.924,93.162 104.143,90.788 106.389 C 88.415 108.634,85.705 111.047,84.767 111.750 C 83.828 112.454,82.236 113.776,81.229 114.689 C 80.221 115.602,78.430 117.064,77.248 117.939 C 75.700 119.084,75.044 119.799,74.905 120.494 C 74.748 121.281,74.495 121.500,73.541 121.679 C 72.825 121.813,71.592 122.563,70.373 123.605 C 67.788 125.815,61.294 131.515,61.079 131.763 C 60.988 131.868,60.315 132.398,59.585 132.941 C 58.855 133.484,57.718 134.454,57.060 135.097 C 54.561 137.535,52.569 139.312,51.286 140.244 C 50.556 140.774,48.913 142.194,47.635 143.398 C 46.357 144.602,44.639 146.123,43.817 146.778 C 42.996 147.433,41.784 148.473,41.125 149.088 C 39.119 150.962,36.599 153.132,30.871 157.919 C 25.971 162.015,25.281 162.720,24.315 164.619 L 23.237 166.742 23.231 174.574 C 23.218 192.424,24.003 211.508,24.783 212.287 C 26.134 213.638,26.125 213.814,25.984 189.498 C 25.826 162.055,25.454 164.615,30.110 161.104 C 31.425 160.111,33.143 158.668,33.927 157.896 C 34.711 157.124,36.024 156.049,36.845 155.507 C 37.666 154.966,39.188 153.701,40.227 152.697 C 41.266 151.693,43.424 149.751,45.022 148.382 C 46.620 147.012,48.236 145.579,48.611 145.196 C 49.767 144.018,54.173 140.415,54.458 140.415 C 54.606 140.415,55.609 139.556,56.688 138.506 C 57.767 137.456,59.518 135.851,60.580 134.938 C 61.641 134.025,63.271 132.551,64.201 131.662 C 65.131 130.774,66.516 129.617,67.278 129.091 C 68.040 128.566,68.936 127.789,69.269 127.366 C 69.603 126.943,70.324 126.310,70.871 125.959 C 71.419 125.609,73.070 124.274,74.539 122.993 C 76.009 121.712,77.855 120.216,78.640 119.668 C 80.478 118.387,86.639 112.863,86.639 112.496 C 86.639 112.342,87.050 112.000,87.552 111.735 C 88.054 111.471,89.734 110.029,91.286 108.530 C 92.838 107.032,95.900 104.304,98.091 102.467 C 101.749 99.400,107.101 94.758,109.271 92.770 C 109.760 92.322,111.627 90.738,113.420 89.251 C 115.213 87.763,117.577 85.746,118.672 84.767 C 119.768 83.788,121.905 81.878,123.421 80.523 C 124.938 79.167,127.315 77.188,128.703 76.124 C 130.091 75.061,132.146 73.295,133.270 72.199 C 134.394 71.104,136.461 69.321,137.864 68.237 C 139.267 67.154,140.415 66.169,140.415 66.048 C 140.415 65.928,141.390 65.113,142.582 64.238 C 143.773 63.363,144.856 62.476,144.988 62.266 C 145.120 62.056,145.676 61.541,146.224 61.120 C 146.772 60.699,148.191 59.480,149.378 58.411 C 150.564 57.342,152.954 55.328,154.689 53.936 C 156.423 52.544,159.261 50.086,160.996 48.475 C 162.730 46.864,164.672 45.123,165.311 44.607 C 167.340 42.968,173.411 37.722,174.284 36.853 C 175.055 36.086,176.590 34.751,180.074 31.816 C 180.799 31.205,181.695 30.387,182.065 29.998 C 182.436 29.609,184.158 28.115,185.892 26.679 C 191.793 21.790,192.248 21.617,194.523 23.395 C 195.344 24.036,196.577 24.955,197.261 25.437 C 197.946 25.918,198.506 26.435,198.506 26.585 C 198.506 26.828,200.378 28.480,204.800 32.137 C 205.615 32.810,206.810 33.816,207.456 34.371 C 208.102 34.927,209.900 36.412,211.452 37.671 C 213.004 38.930,214.901 40.566,215.668 41.308 C 217.687 43.261,219.809 45.103,223.568 48.167 C 225.394 49.655,227.485 51.431,228.216 52.114 C 228.946 52.797,230.116 53.733,230.815 54.195 C 231.514 54.657,233.083 55.986,234.301 57.148 C 235.518 58.310,237.273 59.813,238.199 60.488 C 239.126 61.162,240.551 62.355,241.366 63.139 C 242.181 63.923,243.945 65.535,245.286 66.722 C 246.628 67.909,247.966 69.154,248.261 69.490 C 248.556 69.826,249.428 70.540,250.199 71.077 C 250.971 71.614,252.333 72.759,253.226 73.620 C 254.119 74.482,256.001 76.158,257.406 77.344 C 264.211 83.089,264.577 83.404,269.249 87.524 C 270.457 88.589,272.672 90.432,274.173 91.618 C 275.673 92.805,277.565 94.332,278.376 95.011 C 279.187 95.690,280.514 96.702,281.324 97.259 C 282.134 97.816,282.915 98.475,283.058 98.723 C 283.202 98.971,283.994 99.602,284.819 100.126 C 286.491 101.189,287.763 102.160,291.239 105.026 C 292.543 106.101,294.207 107.354,294.938 107.810 C 295.668 108.267,296.949 109.273,297.785 110.047 C 298.620 110.821,299.647 111.563,300.066 111.696 C 300.711 111.901,302.394 113.219,310.041 119.511 C 310.498 119.887,311.618 120.792,312.531 121.524 C 313.444 122.255,314.949 123.556,315.875 124.414 C 316.801 125.273,318.876 127.170,320.486 128.631 C 322.096 130.091,324.571 132.407,325.987 133.776 C 331.515 139.122,332.568 140.083,332.897 140.083 C 333.254 140.083,334.777 141.335,338.898 145.017 C 340.254 146.228,342.369 148.116,343.596 149.212 C 344.823 150.307,346.824 151.950,348.042 152.863 C 349.260 153.776,350.820 155.066,351.509 155.729 C 352.198 156.393,353.411 157.364,354.205 157.887 C 357.103 159.797,359.451 162.240,359.896 163.809 C 360.506 165.959,359.911 202.174,359.227 204.481 C 358.892 205.614,359.255 210.954,359.668 210.954 C 359.851 210.954,360.049 210.527,360.109 210.004 C 360.177 209.403,360.452 208.992,360.856 208.886 C 361.528 208.710,361.568 208.171,361.685 197.842 C 361.702 196.290,361.889 190.689,362.099 185.394 C 362.670 171.049,362.489 163.104,361.559 161.599 C 360.354 159.649,354.116 154.485,351.989 153.676 C 351.588 153.524,351.174 153.129,351.068 152.799 C 350.963 152.469,350.193 151.769,349.359 151.243 C 347.264 149.922,345.669 148.558,341.281 144.338 C 337.053 140.271,336.378 139.758,334.848 139.445 C 334.155 139.303,333.736 138.999,333.655 138.577 C 333.521 137.883,333.400 137.759,329.623 134.440 C 328.272 133.253,326.482 131.610,325.645 130.788 C 319.821 125.071,314.970 120.587,312.159 118.322 C 310.359 116.871,308.512 115.349,308.056 114.938 C 307.600 114.527,306.992 114.191,306.705 114.191 C 306.418 114.191,305.847 113.737,305.437 113.182 C 305.026 112.627,303.844 111.768,302.809 111.273 C 301.774 110.778,300.571 109.958,300.135 109.450 C 299.699 108.942,298.351 107.830,297.140 106.978 C 295.929 106.127,294.377 104.937,293.692 104.334 C 293.007 103.730,292.255 103.237,292.021 103.237 C 291.787 103.237,291.337 102.799,291.022 102.265 C 290.706 101.731,289.889 100.956,289.207 100.544 C 288.525 100.132,287.071 99.071,285.975 98.188 C 284.880 97.305,283.162 95.918,282.158 95.107 C 281.154 94.296,279.361 92.882,278.174 91.965 C 276.988 91.049,274.944 89.470,273.634 88.457 C 272.323 87.445,271.203 86.509,271.144 86.379 C 270.870 85.768,266.825 82.595,265.747 82.145 C 265.080 81.867,264.427 81.346,264.294 80.988 C 264.162 80.630,262.947 79.435,261.594 78.332 C 260.242 77.230,258.937 76.046,258.696 75.701 C 258.454 75.356,257.815 74.976,257.276 74.858 C 256.734 74.739,256.206 74.361,256.096 74.013 C 255.817 73.136,250.679 68.394,249.426 67.858 C 248.859 67.616,248.154 67.049,247.859 66.599 C 247.564 66.148,244.891 63.741,241.919 61.250 C 238.946 58.758,235.842 56.117,235.021 55.381 C 234.199 54.645,233.041 53.805,232.448 53.516 C 231.855 53.226,231.369 52.813,231.369 52.598 C 231.369 52.210,227.804 48.848,225.892 47.434 C 225.344 47.028,224.224 46.066,223.402 45.295 C 222.581 44.524,221.274 43.501,220.498 43.021 C 219.722 42.542,219.087 42.036,219.087 41.898 C 219.087 41.760,218.323 41.052,217.389 40.325 C 216.454 39.599,215.297 38.611,214.816 38.131 C 213.754 37.070,210.976 34.659,207.982 32.199 C 206.759 31.195,204.535 29.253,203.039 27.884 C 201.544 26.515,199.523 24.797,198.549 24.066 C 197.575 23.336,196.308 22.269,195.734 21.696 C 193.803 19.770,193.257 19.643,191.348 20.679 M189.613 70.617 C 189.011 71.122,187.742 72.209,186.791 73.033 C 185.840 73.856,184.390 75.044,183.568 75.672 C 182.747 76.300,180.943 77.912,179.559 79.255 C 178.176 80.598,176.607 81.963,176.074 82.289 C 175.540 82.614,173.662 84.211,171.899 85.838 C 167.423 89.970,164.713 92.316,163.095 93.460 C 162.332 93.999,161.465 94.850,161.169 95.350 C 160.872 95.851,160.301 96.434,159.900 96.646 C 159.141 97.047,156.184 99.518,153.017 102.396 C 148.346 106.642,146.048 108.661,143.860 110.441 C 139.193 114.239,132.755 119.924,132.428 120.536 C 132.244 120.879,131.525 121.450,130.829 121.805 C 130.133 122.160,129.114 122.963,128.565 123.588 C 128.015 124.214,127.304 124.872,126.985 125.051 C 126.665 125.230,125.560 126.135,124.530 127.062 C 121.631 129.668,118.505 132.212,116.680 133.450 C 114.963 134.615,114.144 135.297,111.643 137.651 C 110.834 138.413,109.619 139.451,108.945 139.959 C 108.270 140.466,106.354 142.158,104.686 143.719 C 103.019 145.279,100.421 147.602,98.913 148.880 C 96.546 150.885,95.198 152.134,94.052 153.383 C 93.900 153.549,93.253 154.183,92.614 154.793 C 91.975 155.402,91.148 156.263,90.777 156.706 C 90.406 157.148,88.987 158.481,87.624 159.668 C 86.262 160.855,84.587 162.368,83.903 163.030 C 83.218 163.692,82.142 164.628,81.511 165.109 C 80.880 165.591,80.100 166.431,79.778 166.976 C 79.456 167.521,78.889 168.063,78.517 168.180 C 78.146 168.297,76.199 170.057,74.191 172.093 C 72.183 174.129,69.675 176.511,68.619 177.386 C 66.285 179.322,65.862 179.963,65.576 181.988 C 65.290 184.017,66.432 183.819,67.660 181.627 C 68.084 180.869,69.976 178.807,71.863 177.044 C 73.751 175.282,75.491 173.452,75.730 172.978 C 76.539 171.376,78.118 169.795,79.409 169.295 C 81.309 168.558,87.878 162.613,94.274 155.842 C 96.431 153.558,99.484 150.855,107.201 144.398 C 109.092 142.816,110.782 141.324,114.025 138.376 C 116.464 136.158,118.901 134.203,120.664 133.050 C 121.394 132.573,122.515 131.673,123.154 131.051 C 123.793 130.429,125.025 129.418,125.892 128.804 C 126.759 128.190,127.469 127.578,127.469 127.443 C 127.469 127.308,128.402 126.440,129.544 125.513 C 130.685 124.587,132.544 123.042,133.677 122.081 C 134.809 121.119,137.124 119.158,138.822 117.724 C 140.520 116.289,142.679 114.348,143.621 113.409 C 144.563 112.470,146.347 110.880,147.586 109.876 C 148.825 108.871,150.220 107.669,150.687 107.203 C 151.153 106.737,152.506 105.556,153.693 104.579 C 154.880 103.601,156.150 102.489,156.516 102.106 C 156.881 101.724,157.927 100.813,158.839 100.083 C 159.752 99.353,160.549 98.639,160.612 98.497 C 160.674 98.355,162.840 96.468,165.425 94.302 C 168.010 92.137,171.095 89.442,172.282 88.314 C 175.557 85.200,180.838 80.556,185.841 76.390 C 187.238 75.226,188.953 73.760,189.651 73.132 C 191.422 71.540,192.300 71.804,195.846 74.996 C 197.401 76.394,199.219 77.941,199.888 78.432 C 200.557 78.924,201.366 79.590,201.686 79.912 C 202.006 80.234,202.596 80.722,202.998 80.996 C 203.400 81.270,204.308 81.886,205.018 82.365 C 205.727 82.845,207.524 84.413,209.011 85.851 C 212.722 89.439,216.646 92.981,217.389 93.415 C 218.339 93.970,224.169 98.741,224.730 99.424 C 225.184 99.975,228.502 102.600,231.141 104.494 C 231.723 104.912,232.349 105.445,232.531 105.679 C 233.094 106.398,237.087 109.678,238.838 110.859 C 240.428 111.932,242.140 113.354,244.647 115.685 C 245.852 116.805,247.779 118.400,249.660 119.834 C 251.564 121.285,257.372 126.164,258.921 127.614 C 259.743 128.382,261.871 130.098,263.651 131.427 C 265.432 132.756,266.888 133.959,266.888 134.101 C 266.888 134.243,267.740 135.012,268.782 135.810 C 269.824 136.608,271.355 137.896,272.185 138.672 C 273.014 139.448,274.253 140.238,274.938 140.428 C 275.801 140.667,276.183 140.960,276.183 141.384 C 276.183 141.721,276.710 142.398,277.354 142.889 C 277.998 143.381,278.796 144.074,279.128 144.429 C 279.459 144.784,280.709 145.782,281.907 146.645 C 283.105 147.509,285.530 149.411,287.296 150.871 C 289.062 152.332,291.111 153.930,291.849 154.423 C 292.588 154.916,293.405 155.623,293.665 155.994 C 293.925 156.365,294.836 157.149,295.689 157.736 C 296.542 158.324,297.544 159.124,297.915 159.515 C 298.286 159.906,299.917 161.329,301.539 162.677 C 303.161 164.025,304.879 165.620,305.356 166.222 C 305.834 166.823,307.071 167.911,308.106 168.639 C 309.141 169.368,310.037 170.092,310.098 170.249 C 310.158 170.407,311.633 171.731,313.376 173.192 C 316.936 176.177,318.197 177.435,318.774 178.573 C 319.796 180.589,320.945 180.279,320.348 178.148 C 319.919 176.617,316.952 173.554,309.212 166.654 C 308.116 165.677,306.305 164.042,305.187 163.020 C 304.069 161.998,302.426 160.603,301.536 159.921 C 300.645 159.238,299.095 157.915,298.091 156.980 C 297.087 156.045,295.743 154.886,295.104 154.404 C 294.465 153.921,292.629 152.407,291.023 151.037 C 286.601 147.265,284.496 145.571,282.496 144.175 C 281.496 143.476,280.065 142.270,279.317 141.494 C 278.568 140.718,277.734 140.083,277.463 140.083 C 277.192 140.083,276.532 139.619,275.996 139.051 C 275.459 138.483,273.676 136.931,272.033 135.602 C 270.390 134.273,268.513 132.684,267.862 132.070 C 267.211 131.456,265.963 130.432,265.089 129.793 C 264.215 129.154,262.620 127.846,261.545 126.888 C 260.470 125.929,259.466 125.145,259.312 125.145 C 259.159 125.145,258.276 124.436,257.350 123.568 C 254.402 120.808,251.842 118.604,249.793 117.063 C 248.697 116.239,247.353 115.090,246.805 114.510 C 246.257 113.930,245.137 112.998,244.315 112.438 C 243.494 111.879,241.701 110.554,240.332 109.494 C 238.963 108.435,237.203 107.079,236.421 106.481 C 235.640 105.883,233.949 104.498,232.665 103.402 C 231.380 102.307,229.791 100.998,229.134 100.493 C 227.822 99.486,224.991 96.983,222.881 94.962 C 222.138 94.251,220.978 93.438,220.304 93.156 C 219.629 92.875,218.992 92.422,218.888 92.150 C 218.784 91.878,217.852 91.017,216.818 90.238 C 214.797 88.714,212.877 87.074,209.461 83.950 C 208.274 82.865,207.004 81.705,206.639 81.372 C 206.274 81.039,205.266 80.230,204.398 79.573 C 203.531 78.916,201.099 76.914,198.994 75.123 C 192.218 69.360,191.512 69.021,189.613 70.617 " stroke="none" fill="#c78683" fill-rule="evenodd"></path></g></svg>